<?xml version="1.0" encoding="UTF-8" standalone="no"?>
<!DOCTYPE svg PUBLIC "-//W3C//DTD SVG 1.1//EN" "http://www.w3.org/Graphics/SVG/1.1/DTD/svg11.dtd">
<svg width="100%" height="100%" viewBox="0 0 1700 355" version="1.1" xmlns="http://www.w3.org/2000/svg" xmlns:xlink="http://www.w3.org/1999/xlink" xml:space="preserve" xmlns:serif="http://www.serif.com/" style="fill-rule:evenodd;clip-rule:evenodd;stroke-linejoin:round;stroke-miterlimit:2;">
    <g transform="matrix(0.98824,0,0,0.989934,-255.621,-387.015)">
        <g transform="matrix(1.04862,0,0,1.04683,685.085,581.644)">
            <path d="M0,-17.691C-1.676,-13.877 -3.94,-10.483 -6.729,-7.605C-9.519,-4.718 -12.874,-2.402 -16.702,-0.721C-20.532,0.96 -24.647,1.813 -28.935,1.813C-33.229,1.813 -37.303,0.959 -41.043,-0.725C-44.771,-2.4 -48.12,-4.712 -50.997,-7.594C-53.878,-10.472 -56.19,-13.87 -57.869,-17.691C-59.549,-21.51 -60.401,-25.628 -60.401,-29.926C-60.401,-34.401 -59.549,-38.609 -57.869,-42.433C-56.186,-46.26 -53.87,-49.616 -50.984,-52.407C-48.102,-55.198 -44.751,-57.417 -41.024,-59.002C-37.284,-60.588 -33.216,-61.393 -28.935,-61.393L-28.893,-61.392C-19.964,-61.017 -12.507,-57.803 -6.729,-51.84C-0.959,-45.88 2.156,-38.523 2.531,-29.97C2.532,-25.635 1.68,-21.519 0,-17.691M16.601,-76.007C10.738,-81.871 3.795,-86.559 -4.035,-89.941C-11.854,-93.314 -20.225,-95.025 -28.915,-95.028C-37.997,-94.667 -46.609,-92.727 -54.513,-89.263C-62.429,-85.795 -69.373,-81.105 -75.15,-75.327C-80.926,-69.554 -85.521,-62.705 -88.811,-54.969C-92.098,-47.253 -93.765,-38.827 -93.765,-29.926L-93.765,60.113C-93.765,64.957 -92.125,68.953 -88.751,72.326C-85.38,75.698 -81.296,77.337 -76.266,77.337C-71.667,77.337 -67.65,75.651 -64.325,72.326C-60.954,68.955 -59.315,64.959 -59.315,60.113L-59.315,27.585L-54.112,29.815C-46.307,33.008 -37.831,34.63 -28.935,34.63C-19.868,34.63 -11.307,32.918 -3.49,29.543C4.327,26.171 11.222,21.485 17.004,15.615C22.784,9.743 27.429,2.843 30.809,-4.892C34.182,-12.621 35.893,-21.044 35.893,-29.926C35.893,-38.992 34.137,-47.549 30.675,-55.363C27.205,-63.192 22.47,-70.137 16.601,-76.007" style="fill:white;fill-rule:nonzero;"/>
        </g>
        <g transform="matrix(1.04862,0,0,1.04683,763.869,519.085)">
            <path d="M0,-33.363C-4.497,-33.363 -8.323,-31.848 -11.699,-28.732C-15.019,-25.668 -16.788,-21.876 -16.955,-17.46C-16.955,-12.003 -15.367,-7.717 -12.236,-4.759C-9.078,-1.77 -4.95,-0.169 0.034,0C4.466,-0.001 8.188,-1.634 11.38,-4.993C14.581,-8.369 16.137,-12.192 16.137,-16.681C16.137,-21.109 14.537,-25.042 11.379,-28.37C8.189,-31.729 4.466,-33.363 0,-33.363" style="fill:white;fill-rule:nonzero;"/>
        </g>
        <g transform="matrix(1.04862,0,0,1.04683,763.89,663.458)">
            <path d="M0,-129.659C-4.448,-129.482 -8.349,-127.921 -11.594,-125.017C-14.872,-122.083 -16.633,-118.475 -16.977,-113.989L-16.974,-15.664C-16.279,-10.703 -14.379,-6.813 -11.325,-4.101C-8.223,-1.342 -4.525,0 -0.02,0C4.888,-0.345 8.877,-2.071 11.765,-5.128C14.653,-8.186 16.118,-12.074 16.118,-16.682L16.118,-112.977C15.774,-117.546 14.077,-121.553 11.077,-124.813C8.075,-128.069 4.451,-129.654 0,-129.659" style="fill:white;fill-rule:nonzero;"/>
        </g>
        <g transform="matrix(1.04862,0,0,1.04683,857.754,517.946)">
            <path d="M0,105.639C-3.904,105.639 -7.17,104.25 -9.709,101.512C-12.232,98.796 -13.512,95.455 -13.512,91.582L-13.512,-15.866C-13.856,-20.607 -15.638,-24.698 -18.806,-27.954C-21.993,-31.222 -25.802,-32.814 -30.448,-32.819C-35.053,-32.643 -38.94,-31.003 -41.999,-27.944C-45.071,-24.873 -46.894,-21.155 -47.419,-16.893L-47.419,91.582C-47.419,97.769 -46.21,103.769 -43.825,109.418C-41.439,115.078 -38.123,120.099 -33.967,124.34C-29.81,128.59 -24.92,132.045 -19.434,134.608C-13.978,137.163 -8.08,138.458 -1.903,138.458L1.827,138.458C6.251,137.766 9.915,135.82 12.718,132.672C15.529,129.524 16.954,125.859 16.954,121.777C16.781,117.152 15.062,113.375 11.699,110.27C8.37,107.198 4.434,105.639 0,105.639" style="fill:white;fill-rule:nonzero;"/>
        </g>
        <g transform="matrix(1.04862,0,0,1.04683,932.334,517.946)">
            <path d="M0,105.639C-3.905,105.639 -7.172,104.25 -9.709,101.512C-12.232,98.796 -13.513,95.455 -13.513,91.582L-13.513,-15.866C-13.856,-20.606 -15.638,-24.698 -18.806,-27.954C-21.994,-31.222 -25.803,-32.814 -30.448,-32.819C-35.054,-32.643 -38.94,-31.003 -41.999,-27.944C-45.071,-24.874 -46.894,-21.156 -47.419,-16.893L-47.419,91.582C-47.419,97.769 -46.21,103.77 -43.825,109.418C-41.439,115.078 -38.123,120.099 -33.968,124.34C-29.812,128.59 -24.922,132.044 -19.435,134.608C-13.978,137.163 -8.08,138.458 -1.903,138.458L1.827,138.458C6.25,137.766 9.914,135.82 12.718,132.672C15.529,129.524 16.954,125.858 16.954,121.777C16.781,117.152 15.062,113.376 11.698,110.27C8.37,107.198 4.434,105.639 0,105.639" style="fill:white;fill-rule:nonzero;"/>
        </g>
        <g transform="matrix(1.04862,0,0,1.04683,1058.15,581.36)">
            <path d="M0,25.016C-1.672,28.825 -3.936,32.218 -6.727,35.101C-9.517,37.988 -12.872,40.304 -16.699,41.986C-20.529,43.666 -24.646,44.519 -28.935,44.519C-33.229,44.519 -37.304,43.665 -41.042,41.982C-44.77,40.305 -48.119,37.995 -50.996,35.112C-53.879,32.233 -56.191,28.835 -57.868,25.015C-59.549,21.188 -60.401,17.071 -60.401,12.781C-60.401,8.313 -59.549,4.105 -57.868,0.274C-56.188,-3.552 -53.871,-6.908 -50.983,-9.7C-48.104,-12.489 -44.752,-14.709 -41.023,-16.295C-37.282,-17.881 -33.215,-18.685 -28.935,-18.685L-28.893,-18.684C-19.964,-18.31 -12.506,-15.096 -6.728,-9.133C-0.959,-3.174 2.155,4.184 2.53,12.737C2.531,17.074 1.68,21.191 0,25.016M16.603,-33.3C10.737,-39.165 3.794,-43.853 -4.033,-47.235C-11.853,-50.607 -20.225,-52.319 -28.915,-52.321C-38.001,-51.959 -46.612,-50.019 -54.512,-46.556C-62.428,-43.088 -69.372,-38.399 -75.15,-32.62C-80.927,-26.844 -85.523,-19.996 -88.812,-12.262C-92.098,-4.543 -93.764,3.882 -93.764,12.781C-93.764,22.033 -92.052,30.685 -88.677,38.496C-85.306,46.316 -80.62,53.211 -74.75,58.991C-68.886,64.766 -61.947,69.317 -54.126,72.515C-46.305,75.715 -37.829,77.337 -28.935,77.337C-19.869,77.337 -11.308,75.625 -3.489,72.25C4.326,68.878 11.222,64.193 17.006,58.323C22.783,52.453 27.427,45.552 30.81,37.814C34.183,30.084 35.894,21.662 35.894,12.781C35.894,3.718 34.139,-4.839 30.677,-12.657C27.206,-20.485 22.472,-27.431 16.603,-33.3" style="fill:white;fill-rule:nonzero;"/>
        </g>
        <g transform="matrix(1.04862,0,0,1.04683,1278.54,657.747)">
            <path d="M0,-120.38C-3.423,-123.458 -7.408,-125.019 -11.845,-125.019C-16.325,-125.019 -20.142,-123.38 -23.514,-120.007C-26.839,-116.682 -28.525,-112.756 -28.525,-108.338L-28.525,-42.237C-28.525,-38.524 -29.864,-35.353 -32.505,-32.812C-35.132,-30.28 -38.432,-28.996 -42.312,-28.996C-45.616,-28.996 -48.708,-30.121 -51.502,-32.341C-54.369,-34.612 -55.823,-37.942 -55.823,-42.237L-55.823,-74.608C-55.823,-79.264 -57.46,-83.122 -60.826,-86.403C-64.154,-89.645 -68.176,-91.288 -72.777,-91.288C-77.039,-91.288 -80.937,-89.77 -84.36,-86.775C-87.791,-83.776 -89.458,-80.24 -89.458,-75.967L-89.458,-42.237C-89.657,-38.298 -91.142,-35.09 -93.873,-32.65C-96.588,-30.226 -99.649,-28.996 -102.972,-28.996C-106.67,-28.996 -109.878,-30.28 -112.506,-32.813C-115.135,-35.341 -116.565,-38.587 -116.756,-42.46L-116.757,-109.97C-117.096,-113.967 -118.867,-117.549 -122.02,-120.533C-125.218,-123.551 -128.953,-125.019 -133.437,-125.019C-135.828,-125.019 -138.078,-124.587 -140.127,-123.735C-142.176,-122.879 -143.99,-121.671 -145.517,-120.144C-147.06,-118.601 -148.318,-116.776 -149.258,-114.723C-150.181,-112.711 -150.563,-110.589 -150.395,-108.415L-150.392,-41.42C-150.392,-35.237 -149.14,-29.288 -146.669,-23.737C-144.195,-18.167 -140.79,-13.237 -136.547,-9.085C-132.301,-4.927 -127.232,-1.564 -121.481,0.911C-115.75,3.385 -109.522,4.639 -102.972,4.639C-97.655,4.639 -92.408,3.787 -87.374,2.107C-82.347,0.433 -77.651,-2.207 -73.418,-5.738L-72.786,-6.266L-72.146,-5.747C-63.666,1.144 -53.628,4.639 -42.312,4.639C-36.125,4.639 -30.077,3.429 -24.334,1.043C-18.578,-1.348 -13.462,-4.622 -9.129,-8.692C-4.804,-12.749 -1.312,-17.677 1.253,-23.336C3.812,-28.987 5.109,-35.072 5.109,-41.42L5.109,-109.697C5.109,-113.79 3.438,-117.284 0,-120.38" style="fill:white;fill-rule:nonzero;"/>
        </g>
        <g transform="matrix(1.04862,0,0,1.04683,1635.89,581.645)">
            <path d="M0,25.015C-1.676,28.831 -3.943,32.183 -6.739,34.976C-9.543,37.78 -12.901,40.003 -16.72,41.585C-20.542,43.17 -24.652,43.974 -28.936,43.974C-32.869,43.974 -36.76,43.12 -40.498,41.438C-44.21,39.768 -47.556,37.507 -50.44,34.716C-53.329,31.923 -55.688,28.574 -57.453,24.761C-59.229,20.937 -60.129,16.814 -60.129,12.508C-60.129,8.396 -59.277,4.371 -57.598,0.546C-55.922,-3.27 -53.608,-6.668 -50.723,-9.553C-47.837,-12.44 -44.488,-14.751 -40.77,-16.423C-37.033,-18.105 -33.051,-18.958 -28.936,-18.958C-24.825,-18.958 -20.8,-18.106 -16.973,-16.426C-13.164,-14.754 -9.766,-12.441 -6.874,-9.554C-3.986,-6.662 -1.675,-3.264 -0.001,0.545C1.68,4.373 2.531,8.399 2.531,12.508C2.531,16.983 1.68,21.191 0,25.015M19.685,-30.764C14.617,-36.541 8.489,-41.362 1.47,-45.094C-5.545,-48.822 -13.158,-51.165 -21.157,-52.055L-21.186,-52.059C-22.427,-52.233 -23.615,-52.321 -24.718,-52.321L-28.663,-52.321C-41.994,-52.321 -54.069,-48.718 -64.553,-41.613C-75.046,-34.499 -82.981,-25.031 -88.14,-13.471C-89.921,-9.373 -91.32,-5.13 -92.293,-0.87C-93.269,3.377 -93.764,7.878 -93.764,12.508C-93.764,17.137 -93.269,21.637 -92.293,25.885C-91.317,30.156 -89.919,34.398 -88.136,38.494C-82.984,49.867 -75.046,59.291 -64.549,66.494C-54.07,73.689 -41.997,77.336 -28.663,77.336C-23.506,77.336 -18.548,76.796 -13.927,75.73C-9.476,74.662 -5.053,73.128 -0.79,71.171C-0.136,70.844 0.569,70.448 1.274,70.007C2.041,69.529 2.918,69.09 3.879,68.704L4.639,68.399L5.088,69.083C8.73,74.637 13.439,77.336 19.485,77.336C23.73,77.336 27.617,75.69 31.036,72.443C34.488,69.165 36.166,65.309 36.166,60.655L36.166,12.508C36.166,4.332 34.68,-3.551 31.748,-10.924C28.812,-18.307 24.754,-24.983 19.685,-30.764" style="fill:white;fill-rule:nonzero;"/>
        </g>
        <g transform="matrix(1.04862,0,0,1.04683,1958.14,526.472)">
            <path d="M0,88.261C-3.779,84.827 -7.922,83.135 -12.233,83.214C-16.599,83.301 -20.642,84.913 -24.25,88.006C-26.826,90.586 -29.92,92.585 -33.388,93.894C-36.837,95.2 -41.029,95.863 -45.847,95.863C-50.321,95.863 -54.529,95.011 -58.354,93.331C-62.179,91.653 -65.538,89.286 -68.338,86.298C-71.136,83.317 -73.352,79.874 -74.924,76.068C-76.509,72.254 -77.313,68.144 -77.313,63.853L-77.313,32.93L-29.524,32.93C-25.294,32.93 -21.417,31.156 -18.001,27.656C-14.579,24.15 -12.844,20.129 -12.844,15.705C-12.844,11.089 -14.405,7.013 -17.483,3.588C-20.578,0.151 -24.517,-1.52 -29.524,-1.52L-77.313,-1.52L-77.313,-24.282C-77.657,-29.205 -79.484,-33.432 -82.743,-36.778C-86.023,-40.144 -89.971,-41.78 -94.811,-41.78C-99.436,-41.78 -103.561,-40.217 -107.07,-37.132C-110.595,-34.039 -112.308,-30.281 -112.308,-25.642L-112.308,63.853C-112.134,73.803 -110.195,82.96 -106.548,91.051C-102.904,99.147 -97.902,106.177 -91.682,111.948C-85.458,117.73 -78.153,122.238 -69.972,125.347C-61.791,128.462 -52.941,130.041 -43.67,130.041C-35.143,130.041 -27.038,128.421 -19.581,125.227C-12.113,122.026 -5.168,117.334 1.06,111.283C2.562,109.781 3.67,107.99 4.345,105.972C5.025,103.92 5.329,101.796 5.247,99.661C5.157,97.526 4.682,95.448 3.832,93.492C2.984,91.551 1.695,89.79 0,88.261" style="fill:white;fill-rule:nonzero;"/>
        </g>
        <g transform="matrix(1.04862,0,0,1.04683,1810.4,583.637)">
            <path d="M0,19.875C-1.945,15.636 -4.68,11.558 -8.128,7.754C-11.558,3.972 -15.667,0.891 -20.342,-1.406C-24.993,-3.685 -30.107,-4.84 -35.542,-4.84L-66.279,-4.84C-68.7,-4.84 -70.8,-5.611 -72.519,-7.132C-74.276,-8.681 -75.169,-10.9 -75.169,-13.728C-75.169,-16.388 -74.268,-18.479 -72.491,-19.94C-70.771,-21.355 -68.682,-22.073 -66.279,-22.073L-19.492,-22.073C-15.435,-22.073 -11.691,-23.759 -8.366,-27.085C-4.994,-30.457 -3.354,-34.273 -3.354,-38.754C-3.354,-42.654 -4.918,-46.414 -8.003,-49.928C-11.098,-53.45 -14.856,-55.163 -19.492,-55.163L-67.911,-55.163C-73.521,-54.986 -78.791,-53.782 -83.541,-51.584C-88.307,-49.375 -92.506,-46.383 -96.022,-42.689C-99.547,-38.99 -102.361,-34.61 -104.389,-29.67C-106.416,-24.736 -107.443,-19.556 -107.443,-14.272C-107.443,-8.982 -106.463,-3.989 -104.529,0.569C-102.592,5.159 -99.858,9.46 -96.405,13.353C-92.976,17.225 -88.874,20.301 -84.215,22.498C-79.573,24.691 -74.546,25.803 -69.272,25.803L-39.349,25.803C-33.891,25.803 -31.006,28.688 -31.006,34.147C-31.006,37.582 -32.453,41.676 -39.349,41.676L-89.401,41.676C-93.832,41.848 -97.514,43.649 -100.619,47.184C-103.703,50.696 -105.267,54.639 -105.267,58.901C-105.267,63.555 -103.679,67.321 -100.411,70.417C-97.176,73.483 -93.288,75.038 -88.857,75.038L-38.806,75.038C-32.616,75.038 -26.979,74.011 -22.049,71.985C-17.106,69.957 -12.727,67.142 -9.03,63.618C-5.34,60.104 -2.351,55.73 -0.145,50.616C2.052,45.522 3.076,39.991 2.901,34.178C2.901,28.879 1.925,24.076 0,19.875" style="fill:white;fill-rule:nonzero;"/>
        </g>
        <g transform="matrix(1.04862,0,0,1.04683,1351.94,572.135)">
            <path d="M0,0C0,-11.968 2.266,-23.209 6.801,-33.728C11.331,-44.242 17.498,-53.448 25.297,-61.336C33.091,-69.224 42.297,-75.434 52.904,-79.968C63.513,-84.498 74.801,-86.768 86.769,-86.768C100.369,-86.768 112.97,-83.818 124.576,-77.928C136.179,-72.033 145.971,-64.192 153.953,-54.4C156.129,-51.136 157.123,-48.051 156.944,-45.152C156.944,-40.256 155.041,-35.993 151.232,-32.368C147.425,-28.738 142.979,-26.834 137.904,-26.656C132.826,-26.834 129.2,-28.194 127.024,-30.736C122.308,-36.72 116.459,-41.522 109.48,-45.152C102.498,-48.777 94.929,-50.592 86.769,-50.592C79.875,-50.592 73.347,-49.274 67.185,-46.648C61.018,-44.018 55.624,-40.392 51,-35.768C46.376,-31.144 42.704,-25.793 39.984,-19.72C37.265,-13.643 35.904,-7.25 35.904,-0.544C35.904,6.528 37.218,13.192 39.849,19.448C42.475,25.704 46.104,31.144 50.729,35.768C55.353,40.392 60.746,44.021 66.912,46.648C73.075,49.278 79.696,50.592 86.769,50.592C94.929,50.592 102.498,48.781 109.48,45.152C116.459,41.526 122.308,36.72 127.024,30.736C129.745,28.199 133.459,26.928 138.177,26.928C143.434,26.928 147.875,28.743 151.505,32.368C155.13,35.997 156.944,39.984 156.944,44.336C156.944,48.51 155.946,51.862 153.953,54.4C145.971,64.192 136.179,72.037 124.576,77.928C112.97,83.823 100.369,86.768 86.769,86.768C74.801,86.768 63.513,84.503 52.904,79.968C42.297,75.438 33.091,69.224 25.297,61.336C17.498,53.448 11.331,44.247 6.801,33.729C2.266,23.214 0,11.968 0,0" style="fill:white;fill-rule:nonzero;"/>
        </g>
        <g transform="matrix(0,334.01,-238.624,0,395.117,403.821)">
            <path d="M0.673,0.516C0.801,0.512 0.868,0.498 0.936,0.414C0.984,0.353 1.006,0.244 0.999,0.156C0.978,-0.087 0.855,-0.175 0.685,-0.089C0.654,-0.073 0.507,0.015 0.496,0.021C0.401,0.08 0.143,0.15 0.163,-0.038C0.177,-0.174 0.24,-0.201 0.285,-0.191C0.327,-0.181 0.379,-0.083 0.421,-0.061C0.448,-0.047 0.488,-0.029 0.531,-0.056C0.576,-0.083 0.605,-0.133 0.613,-0.22C0.627,-0.362 0.553,-0.501 0.397,-0.483C0.352,-0.477 0.268,-0.445 0.234,-0.423C0.126,-0.354 -0.049,-0.188 0.013,0.157C0.015,0.171 0.017,0.178 0.02,0.189C0.054,0.335 0.148,0.451 0.406,0.491C0.492,0.504 0.628,0.517 0.673,0.516Z" style="fill:url(#_Linear1);fill-rule:nonzero;"/>
        </g>
        <g transform="matrix(0,119.372,-76.9785,0,434.99,449.447)">
            <path d="M0.089,0.606C0.089,0.606 0.089,0.604 0.088,0.601C0.074,0.552 0.07,0.493 0.076,0.422C0.079,0.396 0.082,0.371 0.086,0.347C0.137,-0.009 0.301,-0.081 0.418,-0.052C0.537,-0.022 0.681,0.282 0.801,0.352C0.85,0.381 0.915,0.414 0.988,0.409L1,0.406C0.934,0.395 0.875,0.361 0.788,0.156C0.748,0.063 0.7,-0.063 0.664,-0.131C0.641,-0.173 0.588,-0.261 0.534,-0.313C0.454,-0.392 0.264,-0.5 0.085,-0.155C0.021,-0.031 0,0.093 0,0.205C0,0.433 0.089,0.606 0.089,0.606Z" style="fill:url(#_Linear2);fill-rule:nonzero;"/>
        </g>
    </g>
    <defs>
        <linearGradient id="_Linear1" x1="0" y1="0" x2="1" y2="0" gradientUnits="userSpaceOnUse" gradientTransform="matrix(1,0,0,-1,0,0.0156337)"><stop offset="0" style="stop-color:rgb(111,224,196);stop-opacity:1"/><stop offset="1" style="stop-color:rgb(47,208,193);stop-opacity:1"/></linearGradient>
        <linearGradient id="_Linear2" x1="0" y1="0" x2="1" y2="0" gradientUnits="userSpaceOnUse" gradientTransform="matrix(1,0,0,-1,0,0.106428)"><stop offset="0" style="stop-color:rgb(39,162,188);stop-opacity:1"/><stop offset="1" style="stop-color:rgb(47,208,193);stop-opacity:1"/></linearGradient>
    </defs>
</svg>
