<?xml version="1.0" encoding="utf-8"?>
<!-- Generator: Adobe Illustrator 22.1.0, SVG Export Plug-In . SVG Version: 6.00 Build 0)  -->
<svg version="1.1" id="Layer_1" xmlns="http://www.w3.org/2000/svg" xmlns:xlink="http://www.w3.org/1999/xlink" x="0px" y="0px"
	 viewBox="0 0 500 500" style="enable-background:new 0 0 500 500;" xml:space="preserve">
<style type="text/css">
	.st0{clip-path:url(#SVGID_2_);}
	.st1{fill:#FEC401;}
	.st2{fill:#FFFFFF;}
	.st3{fill:#F97910;}
	.st4{fill:#3CC2C2;}
	.st5{fill:#FAEBA4;}
	.st6{fill:#792807;}
</style>
<g>
	<defs>
		<rect id="SVGID_1_" width="500" height="500"/>
	</defs>
	<clipPath id="SVGID_2_">
		<use xlink:href="#SVGID_1_"  style="overflow:visible;"/>
	</clipPath>
	<g class="st0">
		<path id="XMLID_82_" class="st1" d="M8.6,509.5h476.1c0,0-7.4-161-23.9-209.8c-16-47.3-34.4-86.4-34.4-86.4s27.9-21,27.3-43.6
			c-0.6-22.6-44-53.7-44-53.7l-42.2,27.8l-4.4,6.5c0,0-58.9-46.6-110-42.7s-116.4,35.6-116.4,35.6l-9.1,5.2c0,0-13.6-27.8-39.5-29.1
			c-25.9-1.3-34.3,22.6-34.3,22.6l-11,28.5c0,0,9.1,35.6,25.9,38.8c0,0-43.3,88.6-55,153.3C2.2,427.1,8.6,509.5,8.6,509.5z"/>
		<path id="XMLID_81_" class="st2" d="M209.3,236.6l-9.8-16.7l10.6-10.9l37.1,7.8l40-6.9c0,0,13.5,2.9,13.5,3.7
			c0,0.9-6.8,27-9.9,27.6C287.7,241.7,209.3,236.6,209.3,236.6z"/>
		<path id="XMLID_79_" class="st3" d="M142.1,148.4l103.5-5.6l132,13.1l-35.4-25.6c0,0-78.9-21.6-92.3-21.1
			c-13.4,0.4-93.6,22.9-93.6,22.9L142.1,148.4z"/>
		<path id="XMLID_78_" class="st2" d="M139.5,138.1c0,0,82.5-57.5,92.3-86.8c9.8-29.3-30.5-32.8-30.5-32.8s-26.7,15.5-35.7,27
			C156.7,57,136.3,124,136.3,124L139.5,138.1z"/>
		<path id="XMLID_77_" class="st4" d="M334.7,188.3c-1.2,2.7-0.1,5.7,5.3,7.2c5.8,1.6,10.3,1.8,40.2,5.6c3.3,0.4,12.9,2.3,11.2-7.1
			c-0.7-4-2.5-7.1-6.5-8.9c-5.3-2.4-14.7-3.3-22.2-3.2C348.2,182.1,336.3,184.8,334.7,188.3z"/>
		<path id="XMLID_76_" class="st4" d="M351.4,209c5.2-0.3,24,0.9,38.1,4.4c5.6,1.4,7.7,5.3,8.5,8.8c1,4.1,0.1,7.5-2.2,8.6
			c-5.4,2.8-18.6-1.6-33.2-6.5c-13.3-4.4-18.3-9.3-16.8-13.1C346.8,209.1,349.8,209,351.4,209z"/>
		<path id="XMLID_75_" class="st4" d="M164.2,188.3c1.2,2.7,0.1,5.7-5.3,7.2c-5.8,1.6-10.3,1.8-40.2,5.6c-3.3,0.4-12.9,2.3-11.2-7.1
			c0.7-4,2.5-7.1,6.5-8.9c5.3-2.4,14.7-3.3,22.2-3.2C150.7,182.1,162.6,184.8,164.2,188.3z"/>
		<path id="XMLID_74_" class="st4" d="M147.5,209c-5.2-0.3-24,0.9-38.1,4.4c-5.6,1.4-7.7,5.3-8.5,8.8c-1,4.1,0.1,7.3,2.2,8.6
			c4.1,2.7,18.6-1.6,33.2-6.5c13.3-4.4,18.3-9.3,16.8-13.1C152.1,209.1,149.1,209,147.5,209z"/>
		<path id="XMLID_68_" class="st5" d="M313.2,190.5c-0.9-29.6-21.9-40.9-21.9-40.9l-12.9,1.4l-13,28.5c-4.4-0.2-9-0.3-13.6-0.3
			c-5.1,0-10.1,0.1-15,0.3L223.8,151l-12.9-1.4c0,0-20.6,11.1-21.9,40c-12.8,7.4-23.6,21-21.9,42.5c2.6,32.2,33.9,52.6,84.3,52.3
			c45.4-0.3,78.1-17.7,81.6-50.9C335.3,211.8,326.8,198.5,313.2,190.5z M290.5,231.9c-7.9,3.2-16.8,3.8-25.2,5.1
			c-5.5,0.9-10.9,2.3-16.5,2.8c-7.8,0.8-15.6,0.5-23.4,0.5c-1.8,0-3.5-0.7-4.7-1.8c-1.2,0.8-2.5,1.2-3.9,1.2c-4,0-6.9-3.3-7.1-7.1
			c0-0.1,0-0.3,0-0.4c-3.3,0.1-6.2-2-7.2-5.2c-0.1-0.3-0.2-0.7-0.2-1.1c-1-0.6-1.9-1.4-2.5-2.4c-2.2-3.4-0.5-7.7,2.6-9.7
			c6.1-4,14.1-2.5,20.5,0c2.7,1,5.3,2.2,7.9,3.3c7.4,0.2,14.7-0.1,22.1-0.1c7.4,0,14.7,1,22.1,0.9c1,0,2.1-0.1,3.1-0.1
			c0.1,0,1.3-0.2,1.4-0.2c0.6-0.2,1.7-0.5,1.3-0.4c0.6-0.3,1.1-0.6,1.7-0.8c3.6-1.9,7.1-3.4,11.2-3.5c4.1-0.2,6.8,3.4,7.1,7.1
			C301.2,226.2,295.5,229.9,290.5,231.9z"/>
		<path id="XMLID_54_" class="st6" d="M494.9,454.7c-0.3-14.2-1-31.3-2.9-50.9c-0.5-4.9-1-10-1.7-15.2c-0.3-2.6-0.7-5.2-1-7.9
			c-0.4-2.7-0.7-5.4-1.2-8.1c-1.6-10.9-3.6-22.4-6.2-34.3c-1.3-5.9-2.7-12-4.2-18.1c-1.5-6.1-3.3-12.3-5.1-18.6
			c-3.8-12.6-8.1-25.4-13.5-38.3c-1.3-3.2-2.7-6.5-4.1-9.7c-0.7-1.6-1.5-3.2-2.2-4.8c-0.7-1.6-1.5-3.2-2.3-4.8
			c-3.1-6.5-6.5-12.9-10.2-19.3c-1.9-3.2-3.7-6.4-5.7-9.6c-0.5-0.8-1-1.6-1.5-2.4c-0.2-0.3-0.4-0.6-0.6-0.9c1-0.6,2.2-1.2,3.5-2.1
			c2.3-1.5,5-3.4,7.8-5.9c2.8-2.6,5.8-5.7,8.5-9.7c2.6-4,5-8.7,6.3-14.1l0.1-0.2l0.1-0.3l0-0.1l0-0.1l0.1-0.4
			c0.1-0.3,0.1-0.6,0.2-0.9l0-0.2l0-0.3l0.1-0.6c0.1-0.4,0.1-0.8,0.2-1.2l0-0.3l0-0.3l0-0.6c0-0.4,0-0.7,0.1-1.1c0-0.7,0-1.5,0-2.2
			c-0.1-2.9-0.5-5.9-1.1-8.7c-1.3-5.7-3.5-11.1-6.3-16.2c-2.8-5.1-6.2-10-10.1-14.4c-1.9-2.2-4-4.3-6.2-6.3c-2.2-2-4.5-3.8-7-5.5
			c-1.2-0.8-2.5-1.6-3.8-2.3l-1-0.5l-0.5-0.3l-0.2-0.1l-0.1-0.1l-0.2-0.1l-0.1,0l-0.9-0.4c-0.3-0.1-0.6-0.3-1-0.4l-1.2-0.5
			c-0.2-0.1-0.4-0.2-0.6-0.2l-0.6-0.2l-1.1-0.4c-0.4-0.1-0.7-0.2-1.1-0.3c-0.4-0.1-0.7-0.2-1.1-0.3c-0.4-0.1-0.8-0.1-1.1-0.2
			c-0.8-0.2-1.5-0.2-2.3-0.3c-3-0.3-6-0.3-8.9,0.2c-2.9,0.4-5.6,1.2-8.1,2.2c-2.5,1-4.9,2.2-7,3.5c-2.1,1.3-4.1,2.7-5.8,4.2
			c-1.8,1.5-3.4,3-4.8,4.5c-1.4,1.5-2.7,3-3.8,4.4c-2.2,2.9-4,5.6-5.3,7.8c0,0.1-0.1,0.1-0.1,0.2c-7.6-5.4-15.6-10.3-24-14.5
			c-14.5-7.2-30.2-12.3-46.1-15.5c-8-1.6-16.1-2.7-24.2-3.4c-4.1-0.3-8.1-0.6-12.2-0.8l-3.1-0.1c-0.5,0-1,0-1.5-0.1l-1.5,0l-6-0.1
			l-0.7,0c-0.1,0-0.4,0-0.5,0l-0.4,0l-1.5,0l-3.1,0.1c-2,0-4.1,0.2-6.1,0.3c-1,0.1-2,0.1-3.1,0.2l-3.1,0.3l-3.1,0.3
			c-1,0.1-2,0.2-3,0.4c-8.1,0.9-16.2,2.3-24.1,4.2c-3.8,0.9-7.5,1.9-11.2,3c0.4-0.4,0.8-0.7,1.2-1.1c0.8-0.8,1.7-1.5,2.5-2.3
			c0.8-0.8,1.7-1.6,2.5-2.4c0.8-0.8,1.7-1.6,2.5-2.5c0.8-0.9,1.7-1.7,2.5-2.6c0.4-0.4,0.8-0.9,1.3-1.3c0.4-0.5,0.8-0.9,1.2-1.4
			c0.8-0.9,1.7-1.8,2.5-2.8l0.6-0.7l0.6-0.7c0.4-0.5,0.8-1,1.2-1.5c0.8-1,1.7-1.9,2.5-3c0.8-1,1.6-2,2.4-3.1c0.4-0.5,0.8-1,1.2-1.6
			c0.4-0.5,0.8-1.1,1.2-1.6c0.8-1.1,1.6-2.1,2.3-3.2c3-4.4,5.9-9,8.7-13.9c2.7-4.9,5.2-9.9,7.4-15.2c0.3-0.7,0.6-1.3,0.8-2
			c0.3-0.7,0.5-1.3,0.8-2c0.3-0.7,0.5-1.3,0.8-2c0.2-0.7,0.5-1.4,0.7-2c0.2-0.7,0.5-1.4,0.7-2c0.2-0.7,0.4-1.4,0.7-2.1
			c0.5-1.4,0.9-2.8,1.3-4.2c1.6-5.6,2.9-11.3,3.8-17.2l0.3-2.2l0.1-0.6l0.1-0.5l0.1-1.1l0.1-0.5l0-0.3l0-0.4c0-0.5,0.1-0.9,0.1-1.4
			c0-0.9,0-1.9-0.2-2.8c-0.1-1-0.4-1.9-0.8-3c-0.2-0.5-0.4-1-0.7-1.5c-0.1-0.3-0.3-0.5-0.5-0.8c-0.1-0.1-0.2-0.3-0.3-0.4
			c-0.1-0.1-0.2-0.3-0.4-0.4c-0.1-0.1-0.1-0.1-0.1-0.1l-0.1-0.1l-0.1-0.1l-0.2-0.2c-0.2-0.2-0.5-0.4-0.7-0.6
			c-0.2-0.2-0.5-0.4-0.7-0.5c-0.3-0.1-0.5-0.3-0.8-0.4c-1-0.5-2.1-0.9-3.1-1.1c-1-0.2-2-0.3-2.9-0.3c-0.5,0-1,0-1.4,0.1
			c-0.2,0-0.5,0-0.7,0.1l-0.4,0L230,1.3c-0.3,0-0.6,0.1-0.7,0.1l-0.3,0.1l-0.2,0.1l-0.1,0l-1.1,0.3l-2.1,0.6l-1.1,0.3L223.4,3
			l-2.1,0.7c-1.4,0.4-2.8,0.9-4.2,1.4c-5.5,2-10.9,4.3-16.1,7.1c-5.1,2.7-10.1,5.8-14.7,9.2c-4.6,3.4-8.9,7.1-12.8,11.1
			c-3.9,3.9-7.5,8.1-10.8,12.3c-3.3,4.2-6.2,8.6-8.7,13c-2.6,4.4-4.9,8.7-6.9,13.1c-2,4.3-3.8,8.6-5.4,12.7c-1.6,4.1-2.9,8.2-4,12
			c-1.2,3.8-2.1,7.5-3,11c-1.6,7-2.8,13.1-3.5,18.2c-0.6,4.3-1,7.9-1.3,10.6c-0.7-1-1.4-2.1-2.3-3.2c-2.2-2.9-5-6.2-8.5-9.2
			c-3.5-3-7.8-5.9-13-8c-2.6-1-5.4-1.8-8.3-2.2c-2.9-0.4-6-0.5-9.1-0.2c-0.8,0.1-1.6,0.2-2.3,0.4c-0.4,0.1-0.8,0.2-1.2,0.2
			c-0.4,0.1-0.8,0.2-1.2,0.3c-0.4,0.1-0.8,0.2-1.2,0.3l-1.1,0.4l-0.6,0.2c-0.2,0.1-0.4,0.2-0.6,0.2l-1.2,0.5c-0.5,0.2-0.7,0.3-1,0.4
			l-0.9,0.4l-0.3,0.1l-0.1,0.1l-0.2,0.1l-0.5,0.3l-1,0.5c-1.3,0.7-2.6,1.5-3.8,2.4c-5,3.4-9.4,7.4-13.3,11.9
			c-3.9,4.5-7.3,9.4-10,14.6c-2.8,5.2-4.9,10.7-6.2,16.4c-0.6,2.9-1,5.8-1,8.8c0,0.7,0,1.5,0,2.2c0,0.4,0.1,0.7,0.1,1.1l0,0.6l0,0.3
			l0,0.3c0.1,0.4,0.1,0.8,0.2,1.2l0.1,0.6l0.1,0.3l0,0.2c0.1,0.3,0.1,0.6,0.2,0.9l0.1,0.4l0,0.1l0,0.1c0.1,0.5,0,0.2,0.1,0.3
			l0.1,0.2c1.4,5.3,3.8,10.1,6.5,14c2.7,3.9,5.8,7.1,8.6,9.6c2.9,2.5,5.6,4.3,7.9,5.8c0.2,0.1,0.3,0.2,0.5,0.3
			c-3.1,4.8-6.1,9.7-8.9,14.7c-1.8,3.2-3.6,6.4-5.3,9.6c-0.8,1.6-1.7,3.2-2.5,4.8c-0.8,1.6-1.6,3.2-2.4,4.9c-3.1,6.5-6,13-8.6,19.4
			c-2.6,6.5-5.1,12.9-7.3,19.3c-2.2,6.4-4.3,12.8-6.1,19.1c-1.8,6.3-3.5,12.5-5.1,18.7c-1.5,6.1-2.9,12.2-4.2,18.1
			c-5,23.8-7.9,45.9-9.8,65.5c-1.8,19.6-2.5,36.8-2.7,50.9C2.7,468.9,3,480,3.3,487.6c0.2,3.8,0.3,6.7,0.5,8.7
			c0.1,1,0.1,1.8,0.2,2.3c0,0.5,0.1,0.8,0.1,0.8l0,0.1c0.4,4.8,4.7,8.4,9.5,7.9c4.8-0.4,8.4-4.7,7.9-9.5l0-0.1c0,0-0.1-0.9-0.2-2.8
			c-0.2-1.9-0.4-4.7-0.6-8.3c-0.4-7.3-0.9-18.1-0.9-31.9c0-13.8,0.4-30.5,1.9-49.7c1.5-19.1,4.1-40.7,8.6-63.8
			c4.5-23.1,11-47.9,20.8-73c2.4-6.3,5.1-12.5,8-18.8c0.7-1.6,1.4-3.1,2.2-4.7c0.8-1.6,1.5-3.1,2.3-4.7c1.6-3.1,3.2-6.2,4.9-9.3
			c3.4-6.2,7-12.3,11-18.3c1-1.5,2-3,3-4.5l0.8-1.1l0.4-0.6l0.4-0.5c0.5-0.8,1.1-1.5,1.6-2.3c0.5-0.7,1.1-1.5,1.6-2.3
			c0.5-0.7,1.1-1.4,1.6-2.1c0.5-0.7,1.1-1.4,1.6-2.1c0.6-0.7,1.1-1.4,1.7-2.1c9.1-11.4,19.3-22.2,30.8-31.9c2.7-2.3,5.5-4.5,8.3-6.7
			c1.2-0.1,2.5-0.2,4-0.4c3.5-0.3,7.7-0.6,12.6-1c2.4-0.2,5-0.3,7.8-0.5c1.4-0.1,2.8-0.2,4.2-0.3c1.4-0.1,2.9-0.2,4.4-0.2
			c6-0.3,12.5-0.6,19.4-0.9c1.7-0.1,3.5-0.1,5.2-0.2c1.8-0.1,3.6-0.1,5.4-0.2c3.6-0.1,7.3-0.2,11.1-0.3c0.8,0,1.6,0,2.4,0
			c-2.5,4.1-3.9,8.8-3.9,14.1c0,18.7,17.4,29.9,40.2,31.8l1.3,13.7c-3.5-0.4-6.9-1.2-10.2-2.4c-2-0.7-4-1.6-5.9-2.5
			c-2-0.9-19.7-8.7-31.3-0.7c-5.7,4-9.1,8.8-10.2,14.7c-1.4,7.2,0.6,15.6,5.4,22.4c10,14.3,36.2,21.7,56.9,21.7
			c14.4,0,27.2-2.2,38-6.6c9.1-3.7,16.6-9,21-14.9c4.9-6.5,7-15,5.5-22.6c-1.1-5.9-4.5-10.7-10.2-14.7c-11.5-8-29.3-0.2-31.3,0.7
			c-2.2,1-4.5,1.9-6.8,2.7c-3,1-6.1,1.7-9.3,2.1l1.3-13.7c22.8-2,40.2-13.6,40.2-31.8c0-4.7-1.1-8.9-3.1-12.6
			c1.4,0.1,2.8,0.1,4.2,0.2c0.9,0,1.9,0.1,2.8,0.1c0.9,0.1,1.9,0.1,2.8,0.2c1.8,0.1,3.7,0.2,5.5,0.3c1.8,0.1,3.6,0.2,5.4,0.3
			c1.8,0.1,3.5,0.2,5.2,0.4c1.7,0.1,3.4,0.2,5.1,0.3c1.7,0.1,3.3,0.3,4.9,0.4c3.2,0.2,6.4,0.5,9.4,0.7c3,0.3,5.9,0.5,8.6,0.7
			c1.4,0.1,2.7,0.2,4,0.3c1.3,0.1,2.6,0.2,3.8,0.4c2.4,0.2,4.7,0.5,6.8,0.6c1.1,0.1,2.1,0.2,3,0.3c1,0.1,1.9,0.2,2.8,0.3
			c2.4,0.3,4.4,0.4,6.1,0.6c0.4,0.3,0.7,0.6,1.1,1c11,10.1,20.7,21.4,29.5,33.2c4.4,5.9,8.5,11.9,12.5,18l0.7,1.1l0.3,0.5l0.4,0.6
			c0.5,0.8,1,1.5,1.5,2.3c0.5,0.8,1,1.5,1.5,2.3c0.5,0.8,0.9,1.5,1.4,2.3c1.8,3,3.6,6.1,5.3,9.2c3.4,6.2,6.5,12.4,9.4,18.7
			c0.7,1.6,1.5,3.1,2.1,4.7c0.7,1.6,1.4,3.1,2.1,4.7c1.3,3.1,2.6,6.3,3.8,9.4c4.9,12.5,9,25,12.4,37.3c1.7,6.1,3.2,12.2,4.6,18.2
			c1.4,6,2.6,11.9,3.7,17.7c4.5,23.2,6.9,44.7,8.3,63.9c1.4,19.2,1.7,35.9,1.6,49.7c-0.1,13.8-0.7,24.6-1.2,31.9
			c-0.3,3.7-0.5,6.4-0.7,8.3c-0.1,0.9-0.2,1.6-0.2,2.1c0,0.4-0.1,0.6-0.1,0.6l0,0.1c0,0.1,0,0.2,0,0.2c-0.4,5.1,3.5,9.6,8.6,10
			c5.1,0.4,9.6-3.5,10-8.6c0,0,0-0.3,0.1-0.8c0-0.5,0.1-1.3,0.1-2.3c0.1-2,0.3-4.9,0.4-8.7C494.9,480,495.1,468.9,494.9,454.7z
			 M115.4,154.2c-0.5,0.4-1,0.8-1.5,1.3c-16.9-33.2-35.6-12.6-44.3,3.4c-6,11-2.6,19.1-0.7,22.3c2.7,4.6,6.8,8,10,10.2
			c-0.1,0.1-0.2,0.2-0.3,0.3c-0.6,0.8-1.2,1.5-1.8,2.3c-0.6,0.8-1.1,1.5-1.7,2.2c-0.5,0.7-1,1.4-1.6,2.1c-0.4-0.2-0.8-0.5-1.3-0.7
			c-1.8-1-3.9-2.4-6.2-4.3c-2.2-1.8-4.5-4.1-6.5-6.9c-2-2.8-3.7-6.1-4.8-9.8l-0.1-0.2c0,0,0,0,0,0l-0.1-0.4
			c-0.1-0.3-0.1-0.6-0.2-0.9l-0.1-0.2l0-0.1l0-0.3l-0.1-0.5l0-0.1l0-0.2l0-0.3l-0.1-0.7c0-0.5,0-1-0.1-1.4c0-2,0.2-4.1,0.6-6.2
			c0.8-4.3,2.5-8.8,4.7-13.2c2.2-4.3,5.1-8.5,8.3-12.4c3.2-3.8,6.9-7.2,10.8-9.9c1-0.7,2-1.3,3-1.9l0.8-0.4l0.4-0.2l0.2-0.1l0.1-0.1
			c0,0,0,0,0,0l0.8-0.4c0.3-0.1,0.6-0.3,0.8-0.4l0.6-0.2c0.1,0,0.2-0.1,0.3-0.1l0.4-0.1l0.7-0.2c0.2-0.1,0.5-0.1,0.7-0.2l0.7-0.2
			l0.7-0.1c0.5-0.1,1-0.2,1.5-0.2c4-0.5,8,0.2,11.6,1.6c1.8,0.7,3.5,1.6,5.1,2.6c0.4,0.2,0.8,0.5,1.2,0.8c0.4,0.3,0.8,0.5,1.1,0.8
			c0.4,0.3,0.7,0.6,1.1,0.8c0.3,0.3,0.7,0.6,1,0.9c2.7,2.4,4.8,4.9,6.5,7.4c1.7,2.4,3,4.7,4,6.7c0.4,0.9,0.8,1.7,1.1,2.4
			C120.3,150.2,117.8,152.2,115.4,154.2z M278.3,219c3.5-1.6,8.9-3.1,13.2-3.1c0.2,2.3,0.3,10.3-6.1,11.5c-5.8,1-8.7-3.9-10-7.1
			C276.4,219.9,277.3,219.4,278.3,219z M325.9,141c-0.7,0.8-1.9,0.9-2.7,0.2l-21.9-19.7c10.9,2.6,21.5,6.2,31.6,10.7L325.9,141z
			 M257,115.8c0.5,0,1,0,1.5,0.1l2.9,0.1c3.9,0.1,7.8,0.5,11.7,0.8c7.8,0.8,15.5,1.9,23.1,3.5c0.9,0.2,1.7,0.4,2.6,0.6
			c-0.1,0.1-0.2,0.1-0.3,0.2l-17.8,14.8c-0.7,0.6-1.7,0.6-2.4,0L254,115.7l1.5,0L257,115.8z M226.3,116.9c1-0.1,1.9-0.2,2.9-0.3
			l2.9-0.2l2.9-0.2c1-0.1,1.9-0.1,2.9-0.2c1.9-0.1,3.9-0.2,5.8-0.2l2.9,0l1.5,0l0.4,0c0.2,0,0.2,0,0.3,0l0.7,0l1.9,0l-24.7,19.7
			c-0.7,0.6-1.7,0.5-2.4,0l-17.4-15.1C213.3,118.8,219.8,117.7,226.3,116.9z M203.4,121.1C203.4,121.1,203.4,121.1,203.4,121.1
			l-21.7,18.7c-0.8,0.7-2.1,0.6-2.7-0.3l-6.1-8C182.7,127.2,192.9,123.7,203.4,121.1z M143,126.1c0.4-4.8,1.1-10.7,2.4-17.4
			c1.3-6.7,3-14.1,5.7-22c1.3-3.9,2.8-8,4.6-12.1c1.8-4.1,3.8-8.3,6.2-12.4c2.3-4.1,4.9-8.3,7.9-12.3c2.9-4,6.2-7.9,9.8-11.6
			c4.9-5,10.4-9.7,16.5-13.8l-2.7,27.5c-0.3,3.3,0.4,6.3,5.8,5.8l23.5-2.3c-1.5,2.7-3.1,5.4-4.7,8c-2.8,4.3-5.8,8.5-8.9,12.4
			c-3.2,3.9-6.3,7.5-9.6,10.9c-0.4,0.4-0.8,0.9-1.2,1.3l-0.6,0.6l-0.6,0.6c-0.8,0.8-1.7,1.6-2.5,2.4c-0.4,0.4-0.8,0.8-1.2,1.2
			c-0.4,0.4-0.8,0.8-1.3,1.2c-0.8,0.8-1.7,1.5-2.5,2.3c-0.8,0.8-1.7,1.5-2.5,2.2c-0.8,0.7-1.7,1.4-2.5,2.1c-0.8,0.7-1.7,1.4-2.5,2
			c-0.8,0.7-1.6,1.3-2.4,2c-0.4,0.3-0.8,0.7-1.2,1c-0.4,0.3-0.8,0.6-1.2,0.9c-0.8,0.6-1.6,1.2-2.4,1.8c-0.4,0.3-0.8,0.6-1.2,0.9
			c-0.4,0.3-0.8,0.6-1.2,0.9c-0.8,0.6-1.6,1.1-2.3,1.7c-1.5,1.1-3,2.2-4.5,3.1c-1.5,1-2.9,2-4.3,2.9c-1.4,0.9-2.8,1.8-4.2,2.6
			c-1.3,0.8-2.6,1.7-3.9,2.4c-1.3,0.8-2.5,1.5-3.6,2.2c-0.6,0.4-1.1,0.7-1.7,1c-0.5,0.3-1.1,0.6-1.6,1c-1.2,0.7-2.3,1.4-3.3,2.1
			C142.9,128.2,142.9,127.2,143,126.1z M264.9,223.8c-0.2,3.6-1.5,9.8-7.3,10.7c-5.2,0.8-8.4-3.5-9.7-6.4c-0.6-1.4-2.5-1.5-3.2-0.2
			c-1.8,3.3-5.1,7-10.4,6.1c-5.6-0.9-7.7-6.1-8.4-10c-0.2-1.3-1.9-1.7-2.7-0.6c-2.1,2.9-5.4,5.7-9.6,5.6c-4.7-0.1-6.6-3.9-7-7.8
			c-0.2-1.8,0-3.5,0.2-5c1-0.3,2.2-0.4,3.5-0.4c4.3,0,9.7,1.5,13.1,3.1c2.3,1.1,4.6,2,6.9,2.9C241.4,225.9,253.5,226.5,264.9,223.8z
			 M428.6,197.2c-1.8,1-3.3,1.6-4.3,2c-0.1,0-0.1,0-0.2,0.1c-1.6-2.3-3.2-4.6-4.9-6.9c3.5-2.1,8.6-5.8,11.9-11.3
			c1.9-3.1,5.3-11.3-0.7-22.3c-8.7-15.9-27.2-36.4-44.1-3.8c-0.8-0.7-1.6-1.4-2.3-2.1c-1.9-1.7-3.9-3.4-5.9-5
			c0.3-0.6,0.6-1.3,0.9-2.1c0.9-2,2.1-4.3,3.8-6.8c1.7-2.5,3.8-5.1,6.5-7.6c2.7-2.4,5.9-4.7,9.6-6.2c3.7-1.5,7.9-2.2,12-1.6
			c0.5,0.1,1,0.1,1.5,0.3l0.8,0.2l0.8,0.2c0.3,0.1,0.5,0.1,0.8,0.2l0.8,0.3l0.4,0.1c0.1,0,0.2,0.1,0.3,0.1l0.7,0.3
			c0.2,0.1,0.5,0.2,0.8,0.4l0.8,0.4c0,0,0.1,0,0,0l0.1,0.1l0.2,0.1l0.4,0.2l0.8,0.4c1,0.6,2,1.2,3,1.9c2,1.4,3.9,2.9,5.7,4.6
			c1.8,1.7,3.6,3.5,5.2,5.5c3.2,3.9,6,8.1,8.3,12.6c2.2,4.4,3.8,9,4.6,13.4c0.4,2.2,0.6,4.3,0.5,6.3c0,0.5,0,1-0.1,1.5l-0.1,0.7
			l0,0.4l0,0.2l0,0.1l-0.1,0.6l0,0.3l0,0.1l-0.1,0.2c-0.1,0.3-0.1,0.6-0.2,0.9l-0.1,0.4l0,0.1l0,0.1c0.1-0.4,0-0.1,0-0.2l-0.1,0.2
			c-1.1,3.8-2.9,7-5,9.8c-2.1,2.7-4.4,5-6.7,6.7C432.6,194.9,430.5,196.2,428.6,197.2z"/>
	</g>
</g>
</svg>
