<svg version="1.1" id="Layer_1" xmlns="http://www.w3.org/2000/svg" xmlns:xlink="http://www.w3.org/1999/xlink" x="0" y="0" viewBox="0 0 500 500" xml:space="preserve"><style>.st2{fill:#fff}.st4{fill:#3cc2c2}</style><defs><path id="SVGID_1_" d="M0 0h500v500H0z"/></defs><clipPath id="SVGID_2_"><use xlink:href="#SVGID_1_" overflow="visible"/></clipPath><g clip-path="url(#SVGID_2_)"><path id="XMLID_82_" d="M8.6 509.5h476.1s-7.4-161-23.9-209.8c-16-47.3-34.4-86.4-34.4-86.4s27.9-21 27.3-43.6c-.6-22.6-44-53.7-44-53.7l-42.2 27.8-4.4 6.5s-58.9-46.6-110-42.7-116.4 35.6-116.4 35.6l-9.1 5.2s-13.6-27.8-39.5-29.1c-25.9-1.3-34.3 22.6-34.3 22.6l-11 28.5s9.1 35.6 25.9 38.8c0 0-43.3 88.6-55 153.3-11.5 64.6-5.1 147-5.1 147z" fill="#fec401"/><path id="XMLID_81_" class="st2" d="M209.3 236.6l-9.8-16.7 10.6-10.9 37.1 7.8 40-6.9s13.5 2.9 13.5 3.7c0 .9-6.8 27-9.9 27.6-3.1.5-81.5-4.6-81.5-4.6z"/><path id="XMLID_79_" d="M142.1 148.4l103.5-5.6 132 13.1-35.4-25.6s-78.9-21.6-92.3-21.1c-13.4.4-93.6 22.9-93.6 22.9l-14.2 16.3z" fill="#f97910"/><path id="XMLID_78_" class="st2" d="M139.5 138.1s82.5-57.5 92.3-86.8c9.8-29.3-30.5-32.8-30.5-32.8s-26.7 15.5-35.7 27C156.7 57 136.3 124 136.3 124l3.2 14.1z"/><path id="XMLID_77_" class="st4" d="M334.7 188.3c-1.2 2.7-.1 5.7 5.3 7.2 5.8 1.6 10.3 1.8 40.2 5.6 3.3.4 12.9 2.3 11.2-7.1-.7-4-2.5-7.1-6.5-8.9-5.3-2.4-14.7-3.3-22.2-3.2-14.5.2-26.4 2.9-28 6.4z"/><path id="XMLID_76_" class="st4" d="M351.4 209c5.2-.3 24 .9 38.1 4.4 5.6 1.4 7.7 5.3 8.5 8.8 1 4.1.1 7.5-2.2 8.6-5.4 2.8-18.6-1.6-33.2-6.5-13.3-4.4-18.3-9.3-16.8-13.1 1-2.1 4-2.2 5.6-2.2z"/><path id="XMLID_75_" class="st4" d="M164.2 188.3c1.2 2.7.1 5.7-5.3 7.2-5.8 1.6-10.3 1.8-40.2 5.6-3.3.4-12.9 2.3-11.2-7.1.7-4 2.5-7.1 6.5-8.9 5.3-2.4 14.7-3.3 22.2-3.2 14.5.2 26.4 2.9 28 6.4z"/><path id="XMLID_74_" class="st4" d="M147.5 209c-5.2-.3-24 .9-38.1 4.4-5.6 1.4-7.7 5.3-8.5 8.8-1 4.1.1 7.3 2.2 8.6 4.1 2.7 18.6-1.6 33.2-6.5 13.3-4.4 18.3-9.3 16.8-13.1-1-2.1-4-2.2-5.6-2.2z"/><path id="XMLID_68_" d="M313.2 190.5c-.9-29.6-21.9-40.9-21.9-40.9l-12.9 1.4-13 28.5c-4.4-.2-9-.3-13.6-.3-5.1 0-10.1.1-15 .3l-13-28.5-12.9-1.4s-20.6 11.1-21.9 40c-12.8 7.4-23.6 21-21.9 42.5 2.6 32.2 33.9 52.6 84.3 52.3 45.4-.3 78.1-17.7 81.6-50.9 2.3-21.7-6.2-35-19.8-43zm-22.7 41.4c-7.9 3.2-16.8 3.8-25.2 5.1-5.5.9-10.9 2.3-16.5 2.8-7.8.8-15.6.5-23.4.5-1.8 0-3.5-.7-4.7-1.8-1.2.8-2.5 1.2-3.9 1.2-4 0-6.9-3.3-7.1-7.1v-.4c-3.3.1-6.2-2-7.2-5.2-.1-.3-.2-.7-.2-1.1-1-.6-1.9-1.4-2.5-2.4-2.2-3.4-.5-7.7 2.6-9.7 6.1-4 14.1-2.5 20.5 0 2.7 1 5.3 2.2 7.9 3.3 7.4.2 14.7-.1 22.1-.1 7.4 0 14.7 1 22.1.9 1 0 2.1-.1 3.1-.1.1 0 1.3-.2 1.4-.2.6-.2 1.7-.5 1.3-.4.6-.3 1.1-.6 1.7-.8 3.6-1.9 7.1-3.4 11.2-3.5 4.1-.2 6.8 3.4 7.1 7.1.4 6.2-5.3 9.9-10.3 11.9z" fill="#faeba4"/><path id="XMLID_54_" d="M494.9 454.7c-.3-14.2-1-31.3-2.9-50.9-.5-4.9-1-10-1.7-15.2-.3-2.6-.7-5.2-1-7.9-.4-2.7-.7-5.4-1.2-8.1-1.6-10.9-3.6-22.4-6.2-34.3-1.3-5.9-2.7-12-4.2-18.1-1.5-6.1-3.3-12.3-5.1-18.6-3.8-12.6-8.1-25.4-13.5-38.3-1.3-3.2-2.7-6.5-4.1-9.7-.7-1.6-1.5-3.2-2.2-4.8-.7-1.6-1.5-3.2-2.3-4.8-3.1-6.5-6.5-12.9-10.2-19.3-1.9-3.2-3.7-6.4-5.7-9.6l-1.5-2.4-.6-.9c1-.6 2.2-1.2 3.5-2.1 2.3-1.5 5-3.4 7.8-5.9 2.8-2.6 5.8-5.7 8.5-9.7 2.6-4 5-8.7 6.3-14.1l.1-.2.1-.3v-.2l.1-.4c.1-.3.1-.6.2-.9v-.5l.1-.6c.1-.4.1-.8.2-1.2v-1.2c0-.4 0-.7.1-1.1v-2.2c-.1-2.9-.5-5.9-1.1-8.7-1.3-5.7-3.5-11.1-6.3-16.2s-6.2-10-10.1-14.4c-1.9-2.2-4-4.3-6.2-6.3s-4.5-3.8-7-5.5c-1.2-.8-2.5-1.6-3.8-2.3l-1-.5-.5-.3-.2-.1-.1-.1-.2-.1h-.1l-.9-.4c-.3-.1-.6-.3-1-.4l-1.2-.5c-.2-.1-.4-.2-.6-.2l-.6-.2-1.1-.4c-.4-.1-.7-.2-1.1-.3-.4-.1-.7-.2-1.1-.3-.4-.1-.8-.1-1.1-.2-.8-.2-1.5-.2-2.3-.3-3-.3-6-.3-8.9.2-2.9.4-5.6 1.2-8.1 2.2-2.5 1-4.9 2.2-7 3.5-2.1 1.3-4.1 2.7-5.8 4.2-1.8 1.5-3.4 3-4.8 4.5s-2.7 3-3.8 4.4c-2.2 2.9-4 5.6-5.3 7.8 0 .1-.1.1-.1.2-7.6-5.4-15.6-10.3-24-14.5-14.5-7.2-30.2-12.3-46.1-15.5-8-1.6-16.1-2.7-24.2-3.4-4.1-.3-8.1-.6-12.2-.8l-3.1-.1c-.5 0-1 0-1.5-.1h-1.5l-6-.1h-3.1l-3.1.1c-2 0-4.1.2-6.1.3-1 .1-2 .1-3.1.2l-3.1.3-3.1.3c-1 .1-2 .2-3 .4-8.1.9-16.2 2.3-24.1 4.2-3.8.9-7.5 1.9-11.2 3 .4-.4.8-.7 1.2-1.1.8-.8 1.7-1.5 2.5-2.3.8-.8 1.7-1.6 2.5-2.4.8-.8 1.7-1.6 2.5-2.5.8-.9 1.7-1.7 2.5-2.6.4-.4.8-.9 1.3-1.3.4-.5.8-.9 1.2-1.4.8-.9 1.7-1.8 2.5-2.8l.6-.7.6-.7 1.2-1.5c.8-1 1.7-1.9 2.5-3 .8-1 1.6-2 2.4-3.1.4-.5.8-1 1.2-1.6.4-.5.8-1.1 1.2-1.6.8-1.1 1.6-2.1 2.3-3.2 3-4.4 5.9-9 8.7-13.9 2.7-4.9 5.2-9.9 7.4-15.2.3-.7.6-1.3.8-2 .3-.7.5-1.3.8-2 .3-.7.5-1.3.8-2 .2-.7.5-1.4.7-2 .2-.7.5-1.4.7-2 .2-.7.4-1.4.7-2.1.5-1.4.9-2.8 1.3-4.2 1.6-5.6 2.9-11.3 3.8-17.2l.3-2.2.1-.6.1-.5.1-1.1.1-.5v-.7c0-.5.1-.9.1-1.4 0-.9 0-1.9-.2-2.8-.1-1-.4-1.9-.8-3-.2-.5-.4-1-.7-1.5-.1-.3-.3-.5-.5-.8-.1-.1-.2-.3-.3-.4-.1-.1-.2-.3-.4-.4l-.1-.1-.1-.1-.1-.1-.2-.2c-.2-.2-.5-.4-.7-.6-.2-.2-.5-.4-.7-.5-.3-.1-.5-.3-.8-.4-1-.5-2.1-.9-3.1-1.1-1-.2-2-.3-2.9-.3-.5 0-1 0-1.4.1-.2 0-.5 0-.7.1h-.6c-.3 0-.6.1-.7.1l-.3.1-.2.1h-.1l-1.1.3-2.1.6-1.1.3-1 .2-2.1.7c-1.4.4-2.8.9-4.2 1.4-5.5 2-10.9 4.3-16.1 7.1-5.1 2.7-10.1 5.8-14.7 9.2-4.6 3.4-8.9 7.1-12.8 11.1-3.9 3.9-7.5 8.1-10.8 12.3-3.3 4.2-6.2 8.6-8.7 13-2.6 4.4-4.9 8.7-6.9 13.1-2 4.3-3.8 8.6-5.4 12.7-1.6 4.1-2.9 8.2-4 12-1.2 3.8-2.1 7.5-3 11-1.6 7-2.8 13.1-3.5 18.2-.6 4.3-1 7.9-1.3 10.6-.7-1-1.4-2.1-2.3-3.2-2.2-2.9-5-6.2-8.5-9.2-3.5-3-7.8-5.9-13-8-2.6-1-5.4-1.8-8.3-2.2-2.9-.4-6-.5-9.1-.2-.8.1-1.6.2-2.3.4-.4.1-.8.2-1.2.2l-1.2.3-1.2.3-1.1.4-.6.2c-.2.1-.4.2-.6.2l-1.2.5c-.5.2-.7.3-1 .4l-.9.4-.3.1-.1.1-.2.1-.5.3-1 .5c-1.3.7-2.6 1.5-3.8 2.4-5 3.4-9.4 7.4-13.3 11.9-3.9 4.5-7.3 9.4-10 14.6-2.8 5.2-4.9 10.7-6.2 16.4-.6 2.9-1 5.8-1 8.8v2.2c0 .4.1.7.1 1.1v1.2c.1.4.1.8.2 1.2l.1.6.1.3v.2c.1.3.1.6.2.9l.1.4v.2c.1.5 0 .2.1.3l.1.2c1.4 5.3 3.8 10.1 6.5 14 2.7 3.9 5.8 7.1 8.6 9.6 2.9 2.5 5.6 4.3 7.9 5.8.2.1.3.2.5.3-3.1 4.8-6.1 9.7-8.9 14.7-1.8 3.2-3.6 6.4-5.3 9.6-.8 1.6-1.7 3.2-2.5 4.8-.8 1.6-1.6 3.2-2.4 4.9-3.1 6.5-6 13-8.6 19.4-2.6 6.5-5.1 12.9-7.3 19.3s-4.3 12.8-6.1 19.1c-1.8 6.3-3.5 12.5-5.1 18.7-1.5 6.1-2.9 12.2-4.2 18.1-5 23.8-7.9 45.9-9.8 65.5-1.8 19.6-2.5 36.8-2.7 50.9.1 14.3.4 25.4.7 33 .2 3.8.3 6.7.5 8.7.1 1 .1 1.8.2 2.3 0 .5.1.8.1.8v.1c.4 4.8 4.7 8.4 9.5 7.9 4.8-.4 8.4-4.7 7.9-9.5v-.1s-.1-.9-.2-2.8c-.2-1.9-.4-4.7-.6-8.3-.4-7.3-.9-18.1-.9-31.9 0-13.8.4-30.5 1.9-49.7 1.5-19.1 4.1-40.7 8.6-63.8 4.5-23.1 11-47.9 20.8-73 2.4-6.3 5.1-12.5 8-18.8.7-1.6 1.4-3.1 2.2-4.7.8-1.6 1.5-3.1 2.3-4.7 1.6-3.1 3.2-6.2 4.9-9.3 3.4-6.2 7-12.3 11-18.3l3-4.5.8-1.1.4-.6.4-.5c.5-.8 1.1-1.5 1.6-2.3.5-.7 1.1-1.5 1.6-2.3.5-.7 1.1-1.4 1.6-2.1.5-.7 1.1-1.4 1.6-2.1.6-.7 1.1-1.4 1.7-2.1 9.1-11.4 19.3-22.2 30.8-31.9 2.7-2.3 5.5-4.5 8.3-6.7 1.2-.1 2.5-.2 4-.4 3.5-.3 7.7-.6 12.6-1 2.4-.2 5-.3 7.8-.5l4.2-.3c1.4-.1 2.9-.2 4.4-.2 6-.3 12.5-.6 19.4-.9 1.7-.1 3.5-.1 5.2-.2 1.8-.1 3.6-.1 5.4-.2 3.6-.1 7.3-.2 11.1-.3h2.4c-2.5 4.1-3.9 8.8-3.9 14.1 0 18.7 17.4 29.9 40.2 31.8l1.3 13.7c-3.5-.4-6.9-1.2-10.2-2.4-2-.7-4-1.6-5.9-2.5-2-.9-19.7-8.7-31.3-.7-5.7 4-9.1 8.8-10.2 14.7-1.4 7.2.6 15.6 5.4 22.4 10 14.3 36.2 21.7 56.9 21.7 14.4 0 27.2-2.2 38-6.6 9.1-3.7 16.6-9 21-14.9 4.9-6.5 7-15 5.5-22.6-1.1-5.9-4.5-10.7-10.2-14.7-11.5-8-29.3-.2-31.3.7-2.2 1-4.5 1.9-6.8 2.7-3 1-6.1 1.7-9.3 2.1l1.3-13.7c22.8-2 40.2-13.6 40.2-31.8 0-4.7-1.1-8.9-3.1-12.6 1.4.1 2.8.1 4.2.2.9 0 1.9.1 2.8.1.9.1 1.9.1 2.8.2 1.8.1 3.7.2 5.5.3l5.4.3c1.8.1 3.5.2 5.2.4l5.1.3c1.7.1 3.3.3 4.9.4 3.2.2 6.4.5 9.4.7 3 .3 5.9.5 8.6.7 1.4.1 2.7.2 4 .3 1.3.1 2.6.2 3.8.4 2.4.2 4.7.5 6.8.6 1.1.1 2.1.2 3 .3 1 .1 1.9.2 2.8.3 2.4.3 4.4.4 6.1.6.4.3.7.6 1.1 1 11 10.1 20.7 21.4 29.5 33.2 4.4 5.9 8.5 11.9 12.5 18l.7 1.1.3.5.4.6c.5.8 1 1.5 1.5 2.3.5.8 1 1.5 1.5 2.3.5.8.9 1.5 1.4 2.3 1.8 3 3.6 6.1 5.3 9.2 3.4 6.2 6.5 12.4 9.4 18.7.7 1.6 1.5 3.1 2.1 4.7.7 1.6 1.4 3.1 2.1 4.7 1.3 3.1 2.6 6.3 3.8 9.4 4.9 12.5 9 25 12.4 37.3 1.7 6.1 3.2 12.2 4.6 18.2 1.4 6 2.6 11.9 3.7 17.7 4.5 23.2 6.9 44.7 8.3 63.9 1.4 19.2 1.7 35.9 1.6 49.7-.1 13.8-.7 24.6-1.2 31.9-.3 3.7-.5 6.4-.7 8.3-.1.9-.2 1.6-.2 2.1 0 .4-.1.6-.1.6v.3c-.4 5.1 3.5 9.6 8.6 10 5.1.4 9.6-3.5 10-8.6 0 0 0-.3.1-.8 0-.5.1-1.3.1-2.3.1-2 .3-4.9.4-8.7-.1-7.4.1-18.5-.1-32.7zM115.4 154.2c-.5.4-1 .8-1.5 1.3-16.9-33.2-35.6-12.6-44.3 3.4-6 11-2.6 19.1-.7 22.3 2.7 4.6 6.8 8 10 10.2l-.3.3c-.6.8-1.2 1.5-1.8 2.3-.6.8-1.1 1.5-1.7 2.2-.5.7-1 1.4-1.6 2.1-.4-.2-.8-.5-1.3-.7-1.8-1-3.9-2.4-6.2-4.3-2.2-1.8-4.5-4.1-6.5-6.9-2-2.8-3.7-6.1-4.8-9.8l-.1-.2-.1-.4c-.1-.3-.1-.6-.2-.9l-.1-.2v-.4l-.1-.5v-.6l-.1-.7c0-.5 0-1-.1-1.4 0-2 .2-4.1.6-6.2.8-4.3 2.5-8.8 4.7-13.2 2.2-4.3 5.1-8.5 8.3-12.4 3.2-3.8 6.9-7.2 10.8-9.9 1-.7 2-1.3 3-1.9l.8-.4.4-.2.2-.1.1-.1.8-.4c.3-.1.6-.3.8-.4l.6-.2c.1 0 .2-.1.3-.1l.4-.1.7-.2c.2-.1.5-.1.7-.2l.7-.2.7-.1c.5-.1 1-.2 1.5-.2 4-.5 8 .2 11.6 1.6 1.8.7 3.5 1.6 5.1 2.6.4.2.8.5 1.2.8.4.3.8.5 1.1.8.4.3.7.6 1.1.8.3.3.7.6 1 .9 2.7 2.4 4.8 4.9 6.5 7.4 1.7 2.4 3 4.7 4 6.7.4.9.8 1.7 1.1 2.4-2.4 1.4-4.9 3.4-7.3 5.4zM278.3 219c3.5-1.6 8.9-3.1 13.2-3.1.2 2.3.3 10.3-6.1 11.5-5.8 1-8.7-3.9-10-7.1 1-.4 1.9-.9 2.9-1.3zm47.6-78c-.7.8-1.9.9-2.7.2l-21.9-19.7c10.9 2.6 21.5 6.2 31.6 10.7l-7 8.8zM257 115.8c.5 0 1 0 1.5.1l2.9.1c3.9.1 7.8.5 11.7.8 7.8.8 15.5 1.9 23.1 3.5.9.2 1.7.4 2.6.6-.1.1-.2.1-.3.2l-17.8 14.8c-.7.6-1.7.6-2.4 0L254 115.7h1.5l1.5.1zm-30.7 1.1c1-.1 1.9-.2 2.9-.3l2.9-.2 2.9-.2c1-.1 1.9-.1 2.9-.2 1.9-.1 3.9-.2 5.8-.2h7.7l-24.7 19.7c-.7.6-1.7.5-2.4 0l-17.4-15.1c6.4-1.6 12.9-2.7 19.4-3.5zm-22.9 4.2l-21.7 18.7c-.8.7-2.1.6-2.7-.3l-6.1-8c9.8-4.3 20-7.8 30.5-10.4zm-60.4 5c.4-4.8 1.1-10.7 2.4-17.4 1.3-6.7 3-14.1 5.7-22 1.3-3.9 2.8-8 4.6-12.1 1.8-4.1 3.8-8.3 6.2-12.4 2.3-4.1 4.9-8.3 7.9-12.3 2.9-4 6.2-7.9 9.8-11.6 4.9-5 10.4-9.7 16.5-13.8L193.4 52c-.3 3.3.4 6.3 5.8 5.8l23.5-2.3c-1.5 2.7-3.1 5.4-4.7 8-2.8 4.3-5.8 8.5-8.9 12.4-3.2 3.9-6.3 7.5-9.6 10.9-.4.4-.8.9-1.2 1.3l-.6.6-.6.6c-.8.8-1.7 1.6-2.5 2.4l-1.2 1.2c-.4.4-.8.8-1.3 1.2-.8.8-1.7 1.5-2.5 2.3-.8.8-1.7 1.5-2.5 2.2-.8.7-1.7 1.4-2.5 2.1-.8.7-1.7 1.4-2.5 2-.8.7-1.6 1.3-2.4 2-.4.3-.8.7-1.2 1l-1.2.9-2.4 1.8-1.2.9-1.2.9c-.8.6-1.6 1.1-2.3 1.7-1.5 1.1-3 2.2-4.5 3.1-1.5 1-2.9 2-4.3 2.9-1.4.9-2.8 1.8-4.2 2.6-1.3.8-2.6 1.7-3.9 2.4-1.3.8-2.5 1.5-3.6 2.2-.6.4-1.1.7-1.7 1-.5.3-1.1.6-1.6 1-1.2.7-2.3 1.4-3.3 2.1-.2-1-.2-2-.1-3.1zm121.9 97.7c-.2 3.6-1.5 9.8-7.3 10.7-5.2.8-8.4-3.5-9.7-6.4-.6-1.4-2.5-1.5-3.2-.2-1.8 3.3-5.1 7-10.4 6.1-5.6-.9-7.7-6.1-8.4-10-.2-1.3-1.9-1.7-2.7-.6-2.1 2.9-5.4 5.7-9.6 5.6-4.7-.1-6.6-3.9-7-7.8-.2-1.8 0-3.5.2-5 1-.3 2.2-.4 3.5-.4 4.3 0 9.7 1.5 13.1 3.1 2.3 1.1 4.6 2 6.9 2.9 11.1 4.1 23.2 4.7 34.6 2zm163.7-26.6c-1.8 1-3.3 1.6-4.3 2-.1 0-.1 0-.2.1-1.6-2.3-3.2-4.6-4.9-6.9 3.5-2.1 8.6-5.8 11.9-11.3 1.9-3.1 5.3-11.3-.7-22.3-8.7-15.9-27.2-36.4-44.1-3.8-.8-.7-1.6-1.4-2.3-2.1-1.9-1.7-3.9-3.4-5.9-5 .3-.6.6-1.3.9-2.1.9-2 2.1-4.3 3.8-6.8 1.7-2.5 3.8-5.1 6.5-7.6 2.7-2.4 5.9-4.7 9.6-6.2 3.7-1.5 7.9-2.2 12-1.6.5.1 1 .1 1.5.3l.8.2.8.2c.3.1.5.1.8.2l.8.3.4.1c.1 0 .2.1.3.1l.7.3c.2.1.5.2.8.4l.8.4s.1 0 0 0l.1.1.2.1.4.2.8.4c1 .6 2 1.2 3 1.9 2 1.4 3.9 2.9 5.7 4.6 1.8 1.7 3.6 3.5 5.2 5.5 3.2 3.9 6 8.1 8.3 12.6 2.2 4.4 3.8 9 4.6 13.4.4 2.2.6 4.3.5 6.3 0 .5 0 1-.1 1.5l-.1.7v.7l-.1.6v.4l-.1.2c-.1.3-.1.6-.2.9l-.1.4v.2c.1-.4 0-.1 0-.2l-.1.2c-1.1 3.8-2.9 7-5 9.8-2.1 2.7-4.4 5-6.7 6.7-2.3 1.6-4.4 2.9-6.3 3.9z" fill="#792807"/></g></svg>