<svg width="100%" viewBox="0 0 1267 1202" xmlns="http://www.w3.org/2000/svg">
    <path d="M358.107,1046.38c0.729,-1.886 1.447,-3.488 1.979,-5.156c3.249,-10.167 8.109,-19.6 15.234,-27.433c8.438,-9.272 16.95,-18.788 26.818,-26.396c28.791,-22.2 61.381,-37.193 96.192,-47.37c28.882,-8.445 58.574,-13.161 88.103,-18.593c34.368,-6.321 68.362,-14.137 101.702,-24.706c35.413,-11.222 69.356,-25.581 100.389,-46.28c2.208,-1.474 4.369,-3.025 6.549,-4.542c-0.254,-0.442 -0.508,-0.881 -0.765,-1.321c-2.75,1.144 -5.498,2.285 -8.247,3.437c-17.304,7.249 -34.921,13.532 -53.124,18.214c-28.727,7.383 -58.039,10.697 -87.494,12.957c-39.721,3.041 -79.128,8.146 -118.188,16.082c-35.164,7.142 -69.146,17.451 -100.867,34.613c-25.36,13.717 -47.14,31.066 -60.595,57.31c-8.611,16.795 -12.963,34.538 -12.061,53.47c0.119,2.473 -0.439,5.439 4.375,5.714m503.236,-268.245c-1.538,-0.586 -1.82,-0.811 -2.016,-0.75c-9.855,3.139 -17.324,-1.948 -24.72,-7.198c-20.253,-14.375 -35.492,-33.358 -49.055,-53.81c-4.957,-7.474 -9.37,-15.309 -13.607,-22.282c3.111,-7.136 6.088,-13.34 8.464,-19.767c0.797,-2.161 0.979,-5.446 -0.126,-7.274c-8.62,-14.287 -17.614,-28.348 -26.532,-42.455c-0.223,-0.351 -0.876,-0.429 -2.146,-1.009c-5.771,19.713 -5.834,39.347 -1.889,59.17c3.891,19.569 12.128,37.336 22.455,54.391c-53.432,-22.246 -81.432,-65.456 -97.875,-118.517c-2.326,9.188 -1.184,25.516 3.194,48.423c3.025,15.839 8.197,30.989 14.655,45.783c-7.648,-8.919 -13.205,-19.078 -17.297,-29.796c-5.948,-15.57 -11.301,-31.404 -16.027,-47.386c-4.361,-14.757 -8.328,-29.715 -11.125,-44.834c-6.645,-35.909 -4.423,-71.146 10.758,-104.907c13.315,-29.612 34.337,-52.825 60.414,-71.658c23.109,-16.691 48.437,-28.973 75.668,-37.434c14.461,-4.493 28.61,-10.058 43.211,-13.995c15.223,-4.106 11.79,-6.312 22.758,7.699c13.456,17.186 22.123,36.995 29.369,57.406c12.179,34.304 19.133,69.814 23.78,105.82c1.18,9.131 2.087,18.295 3.132,27.572c-10.318,5.29 -19.177,11.708 -26.265,20.438c-23.831,29.342 -20.969,73.901 6.42,98.675c29.547,26.728 73.541,26.145 101.187,-1.34c33.254,-33.06 26.464,-89.804 -14.049,-113.46c-6.28,-3.667 -8.269,-7.727 -8.756,-14.333c-2.817,-38.238 -8.509,-76.036 -18.449,-113.119c-5.67,-21.156 -12.661,-41.835 -23.977,-60.738c-4.048,-6.762 -8.853,-13.073 -13.754,-20.236c11.105,0.895 21.14,3.663 30.998,7.009c21.991,7.461 41.5,19.002 57.883,35.647c1.934,1.964 4.385,3.547 6.838,4.853c50.511,26.89 78.917,68.945 86.254,125.491c0.364,2.801 0.637,5.614 0.969,8.419c0.029,0.237 0.198,0.457 0.302,0.686c8.774,-66.668 1.591,-174.613 -40.315,-275.34c-36.697,-88.209 -91.575,-163.088 -164.101,-225.192c161.186,87.414 314.085,292.629 298.928,553.951c-16.457,283.732 -227.512,512.44 -499.483,558.099c-269.338,45.217 -499.62,-93.797 -606.47,-268.913c54.205,57.6 116.794,103.434 189.748,136.602c0.546,-5.783 0.989,-10.518 1.441,-15.25c2.137,-22.44 7.415,-44.031 17.348,-64.371c15.838,-32.432 40.995,-55.444 72.532,-72.107c32.871,-17.365 68.153,-27.132 104.57,-33.231c32.714,-5.48 65.693,-9.007 98.828,-9.908c35.948,-0.979 71.926,-0.838 107.895,-0.928c28.261,-0.073 56.545,0.765 84.665,-3.098c32.146,-4.418 61.976,-14.486 87.185,-35.795c1.905,-1.609 3.671,-3.377 6.185,-5.703" style="fill:#fff;"></path>
</svg>
