<svg viewBox="0 0 1700 355" xmlns="http://www.w3.org/2000/svg" fill-rule="evenodd" clip-rule="evenodd" stroke-linejoin="round" stroke-miterlimit="2"><path d="M421.407 170.441c-1.736 3.953-4.083 7.47-6.973 10.452-2.891 2.992-6.368 5.392-10.335 7.134-3.969 1.742-8.233 2.626-12.677 2.626-4.45 0-8.671-.885-12.547-2.63a34.5 34.5 0 01-10.315-7.118c-2.986-2.983-5.382-6.504-7.122-10.464-1.74-3.957-2.623-8.225-2.623-12.679 0-4.637.882-8.998 2.623-12.96 1.745-3.967 4.145-7.445 7.135-10.337a33.77 33.77 0 0110.322-6.834c3.875-1.644 8.091-2.478 12.527-2.478l.044.001c9.253.389 16.98 3.72 22.968 9.899 5.98 6.176 9.208 13.8 9.596 22.663.001 4.493-.882 8.758-2.623 12.725m17.204-60.432c-6.076-6.077-13.27-10.935-21.385-14.44-8.103-3.495-16.778-5.269-25.783-5.272-9.411.374-18.336 2.385-26.527 5.975-8.203 3.593-15.399 8.454-21.386 14.441-5.985 5.983-10.747 13.08-14.156 21.097-3.407 7.996-5.134 16.728-5.134 25.952v93.307c0 5.02 1.7 9.16 5.196 12.656 3.493 3.494 7.725 5.193 12.938 5.193 4.766 0 8.929-1.747 12.374-5.193 3.493-3.493 5.192-7.634 5.192-12.656V217.36l5.392 2.311c8.088 3.31 16.872 4.99 26.09 4.99 9.396 0 18.268-1.774 26.369-5.272 8.1-3.494 15.246-8.35 21.237-14.433 5.99-6.085 10.804-13.236 14.306-21.251 3.496-8.01 5.269-16.739 5.269-25.943 0-9.395-1.82-18.263-5.407-26.36-3.596-8.113-8.503-15.31-14.585-21.393m60.654-17.738c-4.66 0-8.625 1.57-12.124 4.8-3.44 3.174-5.273 7.104-5.446 11.68 0 5.655 1.645 10.097 4.89 13.162 3.272 3.098 7.55 4.757 12.715 4.932 4.593-.001 8.45-1.693 11.758-5.174 3.317-3.499 4.93-7.46 4.93-12.113 0-4.588-1.659-8.664-4.931-12.113-3.306-3.48-7.164-5.174-11.792-5.174m.021 43.129c-4.61.183-8.652 1.801-12.015 4.81-3.397 3.04-5.222 6.78-5.578 11.429l.003 101.893c.72 5.141 2.689 9.172 5.854 11.983 3.214 2.859 7.046 4.25 11.715 4.25 5.086-.358 9.22-2.147 12.213-5.314 2.992-3.17 4.51-7.199 4.51-11.974v-99.79c-.356-4.734-2.115-8.887-5.223-12.265-3.111-3.374-6.867-5.017-11.48-5.022m92.761 99.79c-4.046 0-7.43-1.44-10.062-4.277-2.614-2.814-3.94-6.276-3.94-10.29V109.276c-.357-4.914-2.204-9.153-5.487-12.527-3.302-3.387-7.25-5.037-12.064-5.042-4.772.183-8.8 1.882-11.97 5.052-3.184 3.183-5.073 7.036-5.617 11.452v112.412c0 6.412 1.253 12.63 3.724 18.483 2.473 5.866 5.91 11.07 10.216 15.464 4.308 4.404 9.376 7.985 15.06 10.64 5.655 2.648 11.767 3.99 18.168 3.99h3.865c4.585-.717 8.382-2.733 11.286-5.996 2.913-3.262 4.39-7.06 4.39-11.29-.18-4.793-1.96-8.707-5.446-11.925-3.45-3.183-7.528-4.799-12.123-4.799m73.703 0c-4.047 0-7.433-1.44-10.062-4.277-2.614-2.814-3.942-6.276-3.942-10.29V109.276c-.355-4.912-2.202-9.153-5.485-12.527-3.303-3.387-7.25-5.037-12.064-5.042-4.773.183-8.8 1.882-11.97 5.052-3.184 3.182-5.073 7.035-5.617 11.452v112.412c0 6.412 1.253 12.63 3.724 18.483 2.473 5.866 5.91 11.07 10.215 15.464 4.307 4.404 9.374 7.984 15.06 10.64 5.656 2.648 11.768 3.99 18.169 3.99h3.865c4.584-.717 8.38-2.733 11.286-5.996 2.913-3.262 4.39-7.06 4.39-11.29-.18-4.793-1.96-8.706-5.447-11.925-3.449-3.183-7.527-4.799-12.122-4.799m124.336-20.773c-1.733 3.947-4.079 7.463-6.971 10.45-2.891 2.993-6.368 5.393-10.334 7.136-3.969 1.74-8.235 2.625-12.68 2.625-4.45 0-8.673-.885-12.546-2.63a34.522 34.522 0 01-10.315-7.119c-2.988-2.983-5.384-6.504-7.122-10.463-1.742-3.966-2.625-8.232-2.625-12.678 0-4.63.883-8.991 2.625-12.961 1.741-3.965 4.142-7.443 7.135-10.336a33.764 33.764 0 0110.322-6.834c3.876-1.644 8.09-2.477 12.526-2.477h.044c9.253.389 16.981 3.72 22.969 9.899 5.978 6.175 9.205 13.8 9.594 22.663.001 4.495-.88 8.761-2.622 12.725m17.206-60.433c-6.08-6.077-13.274-10.936-21.385-14.44-8.104-3.495-16.78-5.269-25.785-5.27-9.416.374-18.34 2.385-26.526 5.973-8.203 3.594-15.4 8.453-21.387 14.442-5.987 5.986-10.75 13.082-14.158 21.097-3.405 8-5.131 16.73-5.131 25.952 0 9.588 1.774 18.554 5.271 26.648 3.494 8.104 8.35 15.25 14.433 21.239 6.076 5.985 13.267 10.7 21.372 14.015 8.105 3.316 16.888 4.997 26.105 4.997 9.395 0 18.267-1.774 26.37-5.272 8.098-3.494 15.244-8.35 21.238-14.432 5.987-6.083 10.8-13.235 14.305-21.254 3.496-8.01 5.269-16.738 5.269-25.941 0-9.392-1.819-18.26-5.407-26.361-3.597-8.112-8.502-15.31-14.584-21.393m200.592-14.622c-3.547-3.19-7.676-4.807-12.274-4.807-4.643 0-8.599 1.698-12.093 5.194-3.446 3.445-5.193 7.514-5.193 12.092v68.5c0 3.848-1.387 7.134-4.124 9.767-2.723 2.624-6.142 3.955-10.163 3.955-3.424 0-6.628-1.166-9.524-3.467-2.97-2.353-4.477-5.804-4.477-10.255v-33.546c0-4.825-1.697-8.823-5.185-12.223-3.449-3.36-7.617-5.062-12.385-5.062-4.416 0-8.456 1.573-12.003 4.677-3.555 3.108-5.283 6.772-5.283 11.2v34.954c-.206 4.082-1.745 7.407-4.575 9.935-2.814 2.512-5.986 3.787-9.43 3.787-3.831 0-7.156-1.33-9.88-3.956-2.724-2.62-4.206-5.983-4.403-9.997l-.002-69.96c-.35-4.142-2.186-7.854-5.454-10.946-3.314-3.128-7.184-4.65-11.83-4.65-2.479 0-4.81.449-6.934 1.331a17.254 17.254 0 00-5.585 3.722 19.218 19.218 0 00-3.877 5.618 13.087 13.087 0 00-1.178 6.536l.003 69.427c0 6.407 1.297 12.572 3.858 18.325 2.564 5.772 6.092 10.88 10.49 15.183 4.4 4.31 9.652 7.794 15.612 10.36 5.939 2.563 12.393 3.862 19.18 3.862 5.51 0 10.948-.882 16.165-2.623 5.21-1.735 10.076-4.471 14.462-8.13l.655-.547.663.538c8.788 7.14 19.19 10.762 30.917 10.762a48.318 48.318 0 0018.63-3.726c5.965-2.478 11.267-5.87 15.757-10.088 4.482-4.205 8.1-9.311 10.759-15.176 2.652-5.856 3.996-12.162 3.996-18.74v-70.755c0-4.242-1.732-7.862-5.295-11.07m353.147 75.335c-1.736 3.955-4.085 7.428-6.983 10.323-2.905 2.905-6.385 5.209-10.343 6.848-3.96 1.643-8.22 2.476-12.66 2.476-4.075 0-8.107-.885-11.98-2.628a36 36 0 01-10.303-6.966c-2.994-2.894-5.439-6.365-7.268-10.316-1.84-3.963-2.773-8.236-2.773-12.698 0-4.261.883-8.432 2.623-12.396 1.737-3.955 4.135-7.476 7.124-10.466a34.595 34.595 0 0110.314-7.119 29.69 29.69 0 0112.264-2.627c4.26 0 8.431.883 12.397 2.624a34.196 34.196 0 0110.465 7.121c2.993 2.997 5.388 6.519 7.123 10.466 1.742 3.967 2.624 8.139 2.624 12.397 0 4.638-.882 8.998-2.623 12.961m20.4-57.803c-5.253-5.987-11.603-10.983-18.877-14.85-7.27-3.864-15.159-6.292-23.448-7.214l-.03-.004a26.536 26.536 0 00-3.66-.272h-4.088c-13.815 0-26.328 3.734-37.193 11.097-10.873 7.372-19.096 17.184-24.443 29.163a74.484 74.484 0 00-4.303 13.059c-1.012 4.4-1.525 9.065-1.525 13.863 0 4.797.513 9.46 1.525 13.863a74.302 74.302 0 004.308 13.066c5.339 11.786 13.565 21.552 24.443 29.016 10.859 7.457 23.37 11.236 37.188 11.236 5.344 0 10.482-.56 15.27-1.664a74.264 74.264 0 0013.614-4.725c.678-.339 1.409-.75 2.14-1.206.794-.495 1.703-.95 2.699-1.35l.787-.316.466.708c3.774 5.756 8.654 8.553 14.919 8.553 4.4 0 8.427-1.706 11.97-5.07 3.577-3.398 5.316-7.394 5.316-12.217v-49.894c0-8.473-1.54-16.642-4.578-24.282-3.043-7.651-7.248-14.57-12.5-20.56m298.06 68.727c-3.916-3.559-8.21-5.312-12.677-5.23-4.524.09-8.714 1.76-12.453 4.966a26.61 26.61 0 01-9.47 6.101c-3.573 1.354-7.918 2.04-12.91 2.04-4.637 0-8.997-.882-12.961-2.623-3.964-1.74-7.445-4.192-10.347-7.288a34.897 34.897 0 01-6.825-10.602c-1.642-3.952-2.475-8.211-2.475-12.658v-32.045h49.523c4.383 0 8.401-1.839 11.941-5.466 3.546-3.633 5.344-7.8 5.344-12.384 0-4.784-1.617-9.008-4.807-12.557-3.207-3.562-7.29-5.294-12.478-5.294h-49.523v-23.588c-.357-5.101-2.25-9.482-5.627-12.95-3.4-3.487-7.49-5.183-12.506-5.183-4.793 0-9.068 1.62-12.704 4.817-3.653 3.205-5.428 7.1-5.428 11.907v92.743c.18 10.311 2.19 19.8 5.969 28.185 3.776 8.39 8.96 15.675 15.405 21.655 6.45 5.992 14.02 10.664 22.498 13.886 8.478 3.228 17.65 4.864 27.257 4.864 8.836 0 17.235-1.679 24.963-4.989 7.739-3.317 14.936-8.18 21.39-14.45a14.01 14.01 0 003.404-5.503 18.475 18.475 0 00.935-6.54 17.874 17.874 0 00-1.467-6.393c-.878-2.012-2.214-3.837-3.97-5.421m-146.003-14.279c-2.016-4.392-4.85-8.618-8.423-12.56-3.555-3.92-7.813-7.113-12.657-9.493-4.82-2.362-10.12-3.559-15.752-3.559h-31.852c-2.51 0-4.686-.799-6.467-2.375-1.82-1.605-2.746-3.904-2.746-6.835 0-2.757.934-4.924 2.775-6.438 1.783-1.466 3.947-2.21 6.438-2.21h48.484c4.205 0 8.084-1.747 11.53-5.194 3.494-3.494 5.194-7.449 5.194-12.092 0-4.042-1.62-7.938-4.818-11.58-3.207-3.65-7.101-5.425-11.906-5.425h-50.176c-5.813.184-11.274 1.431-16.197 3.709-4.939 2.29-9.29 5.39-12.934 9.218-3.653 3.833-6.569 8.372-8.67 13.491a41.794 41.794 0 00-3.165 15.957c0 5.482 1.015 10.656 3.02 15.38 2.007 4.756 4.84 9.213 8.418 13.248a39.007 39.007 0 0012.633 9.477c4.81 2.272 10.02 3.425 15.485 3.425h31.009c5.656 0 8.646 2.99 8.646 8.646 0 3.56-1.5 7.803-8.646 7.803h-51.869c-4.591.178-8.407 2.044-11.625 5.708-3.196 3.639-4.816 7.725-4.816 12.142 0 4.823 1.645 8.725 5.032 11.934 3.352 3.177 7.381 4.788 11.973 4.788h51.867c6.415 0 12.257-1.064 17.366-3.163 5.122-2.102 9.66-5.02 13.491-8.671 3.824-3.642 6.921-8.174 9.207-13.474 2.277-5.279 3.338-11.01 3.157-17.034 0-5.492-1.011-10.47-3.006-14.823M1080.42 179.36c0-12.401 2.348-24.05 7.048-34.951 4.694-10.896 11.085-20.436 19.167-28.61 8.077-8.174 17.617-14.61 28.609-19.308 10.994-4.695 22.692-7.047 35.094-7.047 14.093 0 27.152 3.057 39.179 9.16 12.024 6.11 22.171 14.235 30.443 24.383 2.255 3.382 3.285 6.579 3.1 9.583 0 5.074-1.973 9.492-5.92 13.248-3.945 3.762-8.552 5.735-13.812 5.92-5.262-.185-9.02-1.594-11.274-4.229-4.887-6.2-10.949-11.177-18.181-14.939-7.235-3.756-15.079-5.637-23.535-5.637-7.144 0-13.91 1.366-20.295 4.087-6.39 2.725-11.98 6.483-16.772 11.275-4.792 4.792-8.597 10.337-11.416 16.63-2.818 6.298-4.228 12.923-4.228 19.872 0 7.329 1.362 14.235 4.088 20.718 2.722 6.483 6.482 12.12 11.275 16.912 4.792 4.792 10.38 8.553 16.77 11.275 6.387 2.725 13.248 4.087 20.578 4.087 8.456 0 16.3-1.877 23.535-5.637 7.232-3.758 13.294-8.738 18.18-14.94 2.82-2.629 6.67-3.946 11.558-3.946 5.448 0 10.05 1.881 13.812 5.638 3.757 3.76 5.636 7.892 5.636 12.402 0 4.325-1.034 7.8-3.1 10.43-8.27 10.147-18.418 18.276-30.442 24.381-12.027 6.109-25.086 9.16-39.18 9.16-12.401 0-24.099-2.346-35.093-7.046-10.992-4.694-20.532-11.134-28.609-19.308-8.082-8.174-14.473-17.71-19.167-28.609-4.7-10.897-7.048-22.55-7.048-34.953" fill="#fff" fill-rule="nonzero"/><path d="M.673.516C.801.512.868.498.936.414A.404.404 0 00.999.156C.978-.087.855-.175.685-.089.654-.073.507.015.496.021.401.08.143.15.163-.038.177-.174.24-.201.285-.191c.042.01.094.108.136.13.027.014.067.032.11.005.045-.027.074-.077.082-.164.014-.142-.06-.281-.216-.263a.538.538 0 00-.163.06c-.108.069-.283.235-.221.58.002.014.004.021.007.032.034.146.128.262.386.302.086.013.222.026.267.025z" fill="url(#_Linear1)" fill-rule="nonzero" transform="matrix(0 330.64786 -235.81778 0 134.85 12.741)"/><path d="M.089.606L.088.601A.501.501 0 01.076.422a1.52 1.52 0 01.01-.075c.051-.356.215-.428.332-.399.119.03.263.334.383.404a.329.329 0 00.187.057L1 .406C.934.395.875.361.788.156.748.063.7-.063.664-.131a.856.856 0 00-.13-.182C.454-.392.264-.5.085-.155A.775.775 0 000 .205c0 .228.089.401.089.401z" fill="url(#_Linear2)" fill-rule="nonzero" transform="scale(76.07323 118.1704) rotate(90 .9 1.39)"/><defs><linearGradient id="_Linear1" x1="0" y1="0" x2="1" y2="0" gradientUnits="userSpaceOnUse" gradientTransform="matrix(1 0 0 -1 0 .016)"><stop offset="0" stop-color="#6fe0c4"/><stop offset="1" stop-color="#2fd0c1"/></linearGradient><linearGradient id="_Linear2" x1="0" y1="0" x2="1" y2="0" gradientUnits="userSpaceOnUse" gradientTransform="matrix(1 0 0 -1 0 .106)"><stop offset="0" stop-color="#27a2bc"/><stop offset="1" stop-color="#2fd0c1"/></linearGradient></defs></svg>